<svg width="461" height="463" viewBox="0 0 461 463" fill="none" xmlns="http://www.w3.org/2000/svg">
<g clip-path="url(#clip0)">
<path d="M342.096 152.696C378.736 184.833 418.836 218.143 422.743 255.272C426.753 292.498 394.395 333.548 357.741 356.574C321.087 379.599 280.123 384.591 230.853 392.725C181.684 400.952 124.303 412.413 91.0897 389.392C57.8762 366.372 48.7613 308.859 69.4838 272.133C90.2064 235.408 140.822 219.515 174.059 187.281C207.295 155.148 223.13 106.752 247.667 98.1266C272.205 89.4086 305.442 120.563 342.096 152.696Z" fill="#F3F8F7"/>
<path d="M423.431 18.5264H282.763V125.277H423.431V18.5264Z" fill="#1C716C"/>
<path d="M399.899 38.5977H358.707V112.619H399.899V38.5977Z" fill="#EAFFEF"/>
<path d="M345.144 54.8809C345.145 58.249 344.15 61.5417 342.283 64.3425C340.417 67.1434 337.764 69.3266 334.66 70.6161C331.556 71.9055 328.14 72.2432 324.844 71.5864C321.548 70.9296 318.521 69.3079 316.144 66.9263C313.768 64.5448 312.15 61.5104 311.495 58.2071C310.84 54.9037 311.177 51.4798 312.463 48.3684C313.75 45.2569 315.928 42.5978 318.722 40.7274C321.517 38.8569 324.802 37.8592 328.162 37.8604C332.666 37.8604 336.985 39.6536 340.17 42.8456C343.355 46.0375 345.144 50.3668 345.144 54.8809Z" fill="#409F94"/>
<path d="M425.131 236.625C425.131 244.863 422.694 252.915 418.128 259.764C413.562 266.614 407.072 271.952 399.479 275.104C391.886 278.257 383.531 279.081 375.47 277.474C367.41 275.867 360.005 271.9 354.194 266.076C348.382 260.251 344.425 252.83 342.821 244.75C341.218 236.671 342.041 228.297 345.186 220.687C348.331 213.076 353.657 206.571 360.491 201.995C367.324 197.418 375.359 194.976 383.577 194.976C394.598 194.976 405.168 199.364 412.96 207.174C420.753 214.985 425.131 225.579 425.131 236.625Z" fill="#EAEAEA"/>
<path d="M450.873 159.271H361.833V248.514H450.873V159.271Z" stroke="#62B199" stroke-width="3" stroke-linecap="round" stroke-linejoin="round"/>
<path d="M215.841 461.922H436.778" stroke="#055752" stroke-width="3.69" stroke-linecap="round" stroke-linejoin="round"/>
<path d="M1.08105 461.922H163.879" stroke="#055752" stroke-width="3.69" stroke-linecap="round" stroke-linejoin="round"/>
<path d="M255.146 160.87L254.24 165.239L248.163 167.137C248.163 167.137 245.153 157.731 244.738 155.605C241.816 157.789 224.975 162.522 222.071 162.943C221.668 160.677 221.668 141.032 238.006 141.032C252.399 141.032 258.851 155.482 259.231 157.174C258.389 157.666 255.14 158.873 255.14 160.87" fill="#18191B"/>
<path d="M259.184 198.688C255.532 198.688 229.025 225.496 227.938 231.107L219.4 275.381L263.619 262.981L266.214 206.59L259.914 198.671L259.184 198.688Z" fill="#17BCB8"/>
<path d="M204.563 276.529C204.487 273.443 229.872 193.119 232.735 190.39C233.675 189.438 234.805 188.696 236.05 188.212C237.296 187.727 238.629 187.512 239.964 187.578C241.226 187.637 247.291 190.507 248.571 193.535C246.386 198.724 241.121 201.606 241.121 201.606L230.877 265.049L204.563 276.529Z" fill="#EAEAEA"/>
<path d="M235.5 324.698L272.186 370.213L254.392 388.141L200.537 340.951L213.276 323.38L235.5 324.698Z" fill="#18191B"/>
<path d="M225.834 406.169C220.89 401.665 162.892 329.254 162.892 320.293C162.892 300.314 185.507 293.233 191.677 291.675C200.18 290.902 237.895 287.739 243.826 287.985C248.104 292.63 297.775 303.348 304.974 302.423C304.974 306.037 299.247 331.304 258.622 331.304C254.368 331.304 222.339 330.021 221.743 330.021C221.743 337.536 242.272 386.448 244.229 389.763" fill="#18191B"/>
<path d="M278.392 185.593C311.274 185.593 318.391 245.048 318.391 261.922C318.391 283.435 309.684 300.625 305.535 302.236C293.784 306.764 250.646 291.933 247.911 284.911C234.576 250.706 256.525 185.593 278.415 185.593" fill="#17BCB8"/>
<path d="M250.319 144.892C253.048 147.35 255.302 150.29 256.969 153.566C257.257 154.128 257.526 154.69 257.775 155.253" stroke="#055752" stroke-width="3.69" stroke-linecap="round" stroke-linejoin="round"/>
<path d="M223.122 171.026C216.98 159.066 219.581 145.466 228.931 140.645C231.971 139.105 235.425 138.585 238.783 139.164" stroke="#055752" stroke-width="3.69" stroke-linecap="round" stroke-linejoin="round"/>
<path d="M255.584 180.503C254.332 181.913 252.832 183.08 251.16 183.947C244.779 187.238 236.901 185.587 230.596 180.403" stroke="#055752" stroke-width="3.69" stroke-linecap="round" stroke-linejoin="round"/>
<path d="M253.06 158.773C253.435 157.825 254.061 156.998 254.87 156.38C255.679 155.761 256.641 155.376 257.652 155.264C258.663 155.151 259.686 155.317 260.61 155.744C261.534 156.17 262.325 156.84 262.898 157.683C263.471 158.525 263.805 159.508 263.863 160.526C263.921 161.544 263.701 162.559 263.227 163.462C262.754 164.364 262.044 165.12 261.174 165.649C260.304 166.178 259.307 166.459 258.29 166.463C257.443 166.458 256.609 166.258 255.853 165.878" stroke="#055752" stroke-width="3.69" stroke-linecap="round" stroke-linejoin="round"/>
<path d="M257.793 199.831C256.969 196.873 254.006 187.759 250.307 184.351" stroke="#055752" stroke-width="3.69" stroke-linecap="round" stroke-linejoin="round"/>
<path d="M260.744 167.869C261.884 171.711 272.186 185.563 274.722 187.484C274.57 189.154 271.292 192.381 267.605 195.099" stroke="#055752" stroke-width="3.69" stroke-linecap="round" stroke-linejoin="round"/>
<path d="M247.578 164.584L252.154 163.16L253.059 158.785" stroke="#055752" stroke-width="3.69" stroke-linecap="round" stroke-linejoin="round"/>
<path d="M235.271 156.571C238.672 155.435 241.577 154.304 242.652 153.508C242.95 155.054 244.627 160.454 245.515 163.277" stroke="#055752" stroke-width="3.69" stroke-linecap="round" stroke-linejoin="round"/>
<path d="M219.979 160.846C221.1 160.682 224.285 159.879 227.949 158.831" stroke="#055752" stroke-width="3.69" stroke-linecap="round" stroke-linejoin="round"/>
<path d="M253.468 288.284C248.852 285.977 245.644 283.733 244.96 281.976C240.869 271.434 240.092 257.933 241.658 244.315" stroke="#055752" stroke-width="3.69" stroke-linecap="round" stroke-linejoin="round"/>
<path d="M310.912 225.069C314.336 238.833 315.464 252.275 315.464 258.988C315.464 280.506 306.757 297.697 302.608 299.302C297.097 301.428 284.697 299.302 272.805 295.705" stroke="#055752" stroke-width="3.69" stroke-linecap="round" stroke-linejoin="round"/>
<path d="M271.099 183.502C272.492 182.956 273.974 182.67 275.47 182.658C284.136 182.658 291.014 186.793 296.443 193.201" stroke="#055752" stroke-width="3.69" stroke-linecap="round" stroke-linejoin="round"/>
<path d="M248.215 215.885C250.455 209.358 253.394 203.094 256.98 197.201" stroke="#055752" stroke-width="3.69" stroke-linecap="round" stroke-linejoin="round"/>
<path d="M227.769 191.813C228.739 189.353 229.452 187.801 229.808 187.455C230.748 186.504 231.878 185.762 233.123 185.277C234.369 184.793 235.702 184.577 237.037 184.644C238.299 184.702 244.364 187.572 245.644 190.6" stroke="#055752" stroke-width="3.69" stroke-linecap="round" stroke-linejoin="round"/>
<path d="M208.794 248.515C213.101 234.716 218.57 217.842 222.883 205.319" stroke="#055752" stroke-width="3.69" stroke-linecap="round" stroke-linejoin="round"/>
<path d="M201.635 273.179C201.635 272.593 202.494 269.354 203.937 264.44" stroke="#055752" stroke-width="3.69" stroke-linecap="round" stroke-linejoin="round"/>
<path d="M238.018 189.944C239.269 190.143 242.29 191.988 243.862 193.833" stroke="#055752" stroke-width="3.69" stroke-linecap="round" stroke-linejoin="round"/>
<path d="M234.518 194.39C235.762 194.589 238.789 196.434 240.361 198.279" stroke="#055752" stroke-width="3.69" stroke-linecap="round" stroke-linejoin="round"/>
<path d="M227.955 261.775C228.054 258.963 234.967 210.479 238.024 200.949" stroke="#055752" stroke-width="3.69" stroke-linecap="round" stroke-linejoin="round"/>
<path d="M242.804 206.825C247.058 202.262 252.212 197.36 256.349 195.374" stroke="#055752" stroke-width="3.69" stroke-linecap="round" stroke-linejoin="round"/>
<path d="M108.64 231.354L135.52 275.141" stroke="#055752" stroke-width="3.69" stroke-linecap="round" stroke-linejoin="round"/>
<path d="M302.047 299.488C302.047 303.102 296.326 328.369 255.695 328.369C251.441 328.369 219.411 327.087 218.815 327.087C218.815 334.601 239.344 383.514 241.302 386.829" stroke="#055752" stroke-width="3.69" stroke-linecap="round" stroke-linejoin="round"/>
<path d="M188.75 288.753C182.783 290.99 159.958 297.392 159.958 317.37C159.958 326.332 217.945 398.743 222.9 403.247" stroke="#055752" stroke-width="3.69" stroke-linecap="round" stroke-linejoin="round"/>
<path d="M220.008 406.48L246.602 389.494" stroke="#055752" stroke-width="3.69" stroke-linecap="round" stroke-linejoin="round"/>
<path d="M222.906 411.165L250.331 394.514" stroke="#055752" stroke-width="3.69" stroke-linecap="round" stroke-linejoin="round"/>
<path d="M233.875 369.773L250.915 385.207" stroke="#055752" stroke-width="3.69" stroke-linecap="round" stroke-linejoin="round"/>
<path d="M243.873 335.709L269.235 367.284" stroke="#055752" stroke-width="3.69" stroke-linecap="round" stroke-linejoin="round"/>
<path d="M272.174 365.018L249.764 386.847" stroke="#055752" stroke-width="3.69" stroke-linecap="round" stroke-linejoin="round"/>
<path d="M275.002 369.229L252.592 391.058" stroke="#055752" stroke-width="3.69" stroke-linecap="round" stroke-linejoin="round"/>
<path d="M96.4844 442.512V461.922" stroke="#055752" stroke-width="3.69" stroke-linecap="round" stroke-linejoin="round"/>
<path d="M96.4844 288.753V406.48" stroke="#055752" stroke-width="3.69" stroke-linecap="round" stroke-linejoin="round"/>
<path d="M185.916 288.753V461.922" stroke="#055752" stroke-width="3.69" stroke-linecap="round" stroke-linejoin="round"/>
<path d="M289.915 199.977C305.57 205.436 297.6 239.044 293.193 240.18C288.787 241.317 262.222 230.78 261.392 227.945C260.562 225.11 271.63 193.593 289.915 199.977Z" fill="#17BCB8"/>
<path d="M270.041 201.998C274.57 197.447 280.297 194.706 286.988 197.043C302.643 202.502 294.672 236.11 290.26 237.246C285.848 238.382 259.289 227.845 258.459 225.01C258.26 224.343 258.722 222.082 259.791 219.083" stroke="#055752" stroke-width="3.69" stroke-linecap="round" stroke-linejoin="round"/>
<path d="M263.221 229.597C261.948 231.471 254.894 254.331 254.894 254.331C254.894 254.331 205.065 275.867 202.582 276.98C201.676 275.739 198.696 273.466 192.648 273.466C181.574 273.466 179.657 280.828 179.657 282.41C179.657 283.991 196.493 287.505 201.01 287.394C205.527 287.283 268.691 277.654 270.947 276.523C273.202 275.393 288.32 239.624 288.32 239.624C284.229 239.407 265.372 233.556 263.233 229.603" fill="#EAEAEA"/>
<path d="M231.806 279.733C215.864 282.175 200.25 284.419 198.07 284.465C193.553 284.583 176.718 281.068 176.718 279.481C176.718 277.894 178.634 270.537 189.708 270.537C195.768 270.537 198.748 272.804 199.642 274.052C202.126 272.921 251.955 251.402 251.955 251.402C251.955 251.402 259.008 228.56 260.282 226.668" stroke="#055752" stroke-width="3.69" stroke-linecap="round" stroke-linejoin="round"/>
<path d="M285.381 236.684C285.381 236.684 270.269 272.464 268.007 273.583C267.365 273.905 261.796 274.918 254.053 276.195" stroke="#055752" stroke-width="3.69" stroke-linecap="round" stroke-linejoin="round"/>
<path d="M338.265 329.67H241.828V338.637H338.265V329.67Z" fill="#1C716C"/>
<path d="M299.248 335.708H238.895V326.741H335.315V335.708H318.368" stroke="#055752" stroke-width="3.69" stroke-linecap="round" stroke-linejoin="round"/>
<path d="M217.074 283.874H70.3457V291.254H217.074V283.874Z" fill="#1C716C"/>
<path d="M108.639 281.361H214.567V288.753H67.8389V281.373H90.4187" stroke="#055752" stroke-width="3.69" stroke-linecap="round" stroke-linejoin="round"/>
<path d="M189.714 277.665H138.039V283.874H189.714V277.665Z" fill="#409F94"/>
<path d="M187.208 275.152H135.532V281.361H187.208V275.152Z" stroke="#055752" stroke-width="3.69" stroke-linecap="round" stroke-linejoin="round"/>
<path d="M227.943 412.822L244.89 431.395L235.622 457.166L264.051 435.009L247.572 400.938" fill="#EAEAEA"/>
<path d="M254.503 418.381L244.633 397.986" stroke="#055752" stroke-width="3.69" stroke-linecap="round" stroke-linejoin="round"/>
<path d="M225.021 409.889L241.968 428.461L232.706 454.232L261.129 432.075L258.231 426.101" stroke="#055752" stroke-width="3.69" stroke-linecap="round" stroke-linejoin="round"/>
<path d="M274.377 375.618L283.814 391.678L290.33 395.075L277.93 423.939L275.101 405.782L258.739 390.829" fill="#EAEAEA"/>
<path d="M260.042 391.719L255.864 387.895" stroke="#055752" stroke-width="3.69" stroke-linecap="round" stroke-linejoin="round"/>
<path d="M271.45 372.69L280.887 388.745L287.403 392.148L275.002 421.011L272.174 402.854L268.668 399.645" stroke="#055752" stroke-width="3.69" stroke-linecap="round" stroke-linejoin="round"/>
<path d="M263.8 335.709V461.05" stroke="#055752" stroke-width="3.69" stroke-linecap="round" stroke-linejoin="round"/>
<path d="M310.438 383.549V461.067" stroke="#055752" stroke-width="3.69" stroke-linecap="round" stroke-linejoin="round"/>
<path d="M310.438 335.709V362.113" stroke="#055752" stroke-width="3.69" stroke-linecap="round" stroke-linejoin="round"/>
<path d="M235.622 163.124C235.908 164.12 236.574 164.799 237.112 164.641C237.65 164.483 237.86 163.558 237.574 162.568C237.287 161.578 236.627 160.893 236.084 161.069C235.54 161.244 235.341 162.152 235.622 163.142" fill="#055752"/>
<path d="M229.136 174.071C229.065 174.441 228.952 174.8 228.797 175.143" stroke="#055752" stroke-width="3.14" stroke-linecap="round" stroke-linejoin="round"/>
<path d="M228.516 168.268C228.98 169.56 229.236 170.918 229.275 172.291" stroke="#055752" stroke-width="3.14" stroke-linecap="round" stroke-linejoin="round"/>
<path d="M244.504 173.509C244.674 174.821 243.756 176.859 241.986 178.048" stroke="#055752" stroke-width="3.14" stroke-linecap="round" stroke-linejoin="round"/>
<path d="M166.199 149.016H12.2598V195.567H166.199V149.016Z" fill="#1C716C"/>
<path d="M152.957 172.057C152.958 174.745 152.164 177.373 150.675 179.608C149.186 181.843 147.069 183.586 144.592 184.615C142.115 185.645 139.389 185.915 136.759 185.391C134.129 184.867 131.712 183.574 129.816 181.673C127.919 179.773 126.627 177.352 126.104 174.716C125.58 172.08 125.848 169.348 126.874 166.864C127.9 164.381 129.638 162.258 131.867 160.765C134.097 159.272 136.718 158.475 139.4 158.475C142.995 158.475 146.442 159.905 148.984 162.452C151.527 165 152.956 168.454 152.957 172.057Z" fill="#62B199"/>
<path d="M113.793 164.179H37.2764" stroke="#EAFFEF" stroke-width="3.69" stroke-linecap="round" stroke-linejoin="round"/>
<path d="M113.793 179.94H73.25" stroke="#EAFFEF" stroke-width="3.69" stroke-linecap="round" stroke-linejoin="round"/>
<path d="M218.821 0H127.333V116.356H218.821V0Z" fill="#EAFFEF"/>
<path d="M162.892 41.7197L189.714 104.911L246.018 65.7336L162.892 41.7197Z" stroke="#62B199" stroke-width="3" stroke-linecap="round" stroke-linejoin="round"/>
<path d="M83.0673 58.4941H30.3867V80.546H83.0673V58.4941Z" fill="#EAFFEF"/>
<path d="M58.5536 85.7529H5.87305V107.805H58.5536V85.7529Z" fill="#EAFFEF"/>
</g>
<defs>
<clipPath id="clip0">
<rect width="461" height="463" fill="white"/>
</clipPath>
</defs>
</svg>
